<svg id="svg" version="1.1" width="500" height="500" xmlns="http://www.w3.org/2000/svg" xmlns:xlink="http://www.w3.org/1999/xlink" style="display: block;"><g id="svgg"><path id="path0" d="M183.600 8.854 C 174.262 9.847,163.532 11.713,154.000 14.001 C 150.920 14.740,147.140 15.613,145.600 15.941 C 144.060 16.270,141.202 17.317,139.250 18.269 C 137.297 19.221,135.119 20.000,134.410 20.000 C 133.700 20.000,132.778 20.286,132.360 20.636 C 131.942 20.985,129.440 21.961,126.800 22.805 C 124.160 23.648,121.816 24.594,121.592 24.906 C 121.147 25.524,110.873 30.400,110.015 30.400 C 109.725 30.400,107.983 31.427,106.144 32.682 C 104.305 33.937,100.640 36.140,98.000 37.579 C 95.360 39.018,92.300 40.988,91.200 41.957 C 90.100 42.926,87.330 45.027,85.044 46.627 C 79.694 50.370,76.541 53.070,67.600 61.568 C 61.972 66.917,55.237 74.141,50.963 79.414 C 49.292 81.474,47.492 83.619,46.963 84.180 C 46.433 84.741,45.515 86.141,44.923 87.291 C 44.331 88.441,43.071 90.260,42.123 91.334 C 40.220 93.489,38.670 95.766,37.859 97.600 C 37.567 98.260,36.192 100.600,34.804 102.800 C 31.031 108.777,23.604 124.528,21.222 131.600 C 20.482 133.800,19.587 136.320,19.234 137.200 C 16.628 143.693,15.931 145.896,14.801 151.200 C 14.098 154.500,13.181 158.306,12.762 159.657 C 12.343 161.008,12.000 163.366,12.000 164.897 C 12.000 166.428,11.672 168.022,11.270 168.440 C 7.009 172.879,8.345 228.198,13.017 240.800 C 13.262 241.460,14.066 244.880,14.805 248.400 C 15.994 254.066,16.865 256.899,19.234 262.800 C 19.587 263.680,20.476 266.200,21.209 268.400 C 21.942 270.600,22.870 273.025,23.271 273.789 C 23.672 274.553,24.000 275.903,24.000 276.789 C 24.000 277.675,24.294 278.400,24.653 278.400 C 25.012 278.400,26.874 281.730,28.790 285.800 C 30.706 289.870,33.113 294.346,34.137 295.747 C 35.162 297.147,36.000 298.516,36.000 298.789 C 36.000 299.582,44.316 311.986,48.119 316.866 C 59.068 330.914,78.126 349.378,87.791 355.303 C 89.446 356.317,91.696 357.969,92.792 358.974 C 93.887 359.978,95.237 360.800,95.792 360.800 C 96.346 360.800,96.800 361.160,96.800 361.600 C 96.800 362.040,97.177 362.400,97.638 362.400 C 98.100 362.400,100.350 363.595,102.638 365.056 C 104.927 366.517,110.040 369.258,114.000 371.148 C 117.960 373.038,121.320 374.903,121.467 375.292 C 121.613 375.682,122.382 376.000,123.175 376.000 C 123.968 376.000,125.648 376.538,126.909 377.195 C 128.169 377.852,129.835 378.392,130.611 378.395 C 131.387 378.398,132.647 378.730,133.411 379.133 C 134.175 379.536,136.240 380.460,138.000 381.187 C 139.760 381.914,141.920 382.815,142.800 383.189 C 143.680 383.564,145.480 384.066,146.800 384.305 C 148.120 384.544,151.720 385.326,154.800 386.042 C 161.352 387.565,166.686 388.606,172.800 389.557 C 175.220 389.934,179.540 390.630,182.400 391.105 C 188.990 392.198,210.762 392.226,217.600 391.149 C 235.166 388.382,238.886 387.707,246.000 385.997 C 249.080 385.256,252.500 384.471,253.600 384.252 C 255.662 383.842,260.144 382.101,262.589 380.761 C 263.353 380.343,264.631 380.000,265.429 380.000 C 266.227 380.000,267.222 379.714,267.640 379.364 C 268.058 379.015,270.560 378.039,273.200 377.195 C 275.840 376.352,278.180 375.459,278.400 375.211 C 279.053 374.477,287.282 370.400,288.112 370.400 C 288.533 370.400,290.763 369.193,293.069 367.718 C 295.375 366.243,299.386 363.855,301.983 362.410 C 304.580 360.965,307.585 358.966,308.661 357.968 C 309.737 356.970,311.554 355.669,312.698 355.077 C 314.652 354.065,315.444 353.474,319.701 349.848 C 320.636 349.052,323.336 346.780,325.701 344.800 C 330.558 340.733,342.501 328.750,345.747 324.687 C 347.781 322.141,349.285 320.343,352.848 316.194 C 353.702 315.201,354.400 314.187,354.400 313.941 C 354.400 313.447,358.485 307.837,359.308 307.200 C 359.592 306.980,360.603 305.360,361.554 303.600 C 363.655 299.711,364.563 298.198,367.376 293.904 C 368.572 292.077,370.257 288.831,371.120 286.691 C 373.473 280.853,374.734 278.413,375.400 278.406 C 375.730 278.403,376.000 277.752,376.000 276.960 C 376.000 276.168,376.308 275.178,376.684 274.760 C 377.061 274.342,377.981 272.020,378.729 269.600 C 379.477 267.180,380.634 263.940,381.299 262.400 C 381.964 260.860,382.805 258.880,383.168 258.000 C 384.072 255.811,386.400 245.325,386.400 243.446 C 386.400 242.606,386.723 241.578,387.118 241.160 C 387.513 240.742,388.019 238.960,388.244 237.200 C 389.353 228.486,390.396 222.516,391.157 220.512 C 392.535 216.889,392.255 182.694,390.809 177.927 C 390.153 175.767,389.613 172.835,389.609 171.411 C 389.601 168.994,388.736 164.444,387.213 158.800 C 386.857 157.480,385.947 153.520,385.191 150.000 C 384.434 146.480,383.122 142.042,382.274 140.137 C 381.426 138.233,379.619 133.283,378.257 129.137 C 376.895 124.992,375.470 121.600,375.090 121.600 C 374.711 121.600,374.400 120.901,374.400 120.047 C 374.400 119.193,374.063 118.286,373.651 118.031 C 372.742 117.470,370.401 112.899,370.397 111.677 C 370.395 111.195,369.292 109.180,367.947 107.200 C 366.601 105.220,365.151 102.880,364.723 102.000 C 362.622 97.679,358.373 91.136,353.814 85.200 C 344.825 73.497,329.913 58.001,320.711 50.800 C 317.900 48.600,315.480 46.530,315.333 46.200 C 315.187 45.870,314.684 45.600,314.216 45.600 C 313.748 45.600,311.859 44.366,310.019 42.858 C 308.179 41.350,305.151 39.280,303.292 38.258 C 298.360 35.548,297.549 35.066,293.098 32.200 C 290.877 30.770,288.697 29.600,288.253 29.600 C 287.090 29.600,282.515 27.234,281.969 26.349 C 281.714 25.937,280.807 25.600,279.953 25.600 C 279.099 25.600,278.400 25.240,278.400 24.800 C 278.400 24.360,277.855 24.000,277.189 24.000 C 276.523 24.000,275.353 23.672,274.589 23.271 C 273.825 22.870,271.400 21.942,269.200 21.209 C 267.000 20.476,264.480 19.587,263.600 19.234 C 257.121 16.634,254.904 15.927,249.600 14.773 C 246.300 14.055,242.773 13.138,241.762 12.734 C 240.752 12.330,238.574 12.000,236.922 12.000 C 235.271 12.000,233.578 11.672,233.160 11.270 C 232.742 10.869,230.420 10.355,228.000 10.129 C 225.580 9.902,220.360 9.356,216.400 8.915 C 208.202 8.003,191.894 7.972,183.600 8.854 M219.152 14.348 C 221.598 14.759,228.349 15.824,234.153 16.716 C 239.957 17.607,247.877 19.383,251.753 20.663 C 255.629 21.943,260.780 23.611,263.200 24.370 C 269.534 26.355,290.243 36.040,292.341 37.999 C 292.814 38.439,294.820 39.614,296.800 40.609 C 300.227 42.331,312.755 50.749,313.600 51.898 C 313.820 52.197,315.620 53.681,317.600 55.197 C 325.505 61.248,338.752 74.495,344.803 82.400 C 346.319 84.380,347.790 86.180,348.073 86.400 C 349.208 87.283,358.626 101.247,360.941 105.480 C 364.281 111.587,368.637 120.128,369.162 121.600 C 369.397 122.260,369.923 123.340,370.330 124.000 C 371.424 125.772,373.995 131.890,375.373 136.000 C 376.038 137.980,377.018 140.860,377.552 142.400 C 384.767 163.210,388.430 197.673,385.630 218.400 C 382.636 240.561,382.166 242.660,375.851 262.000 C 373.831 268.188,364.503 288.345,361.415 293.194 C 355.996 301.705,349.047 311.992,346.964 314.589 C 339.993 323.277,330.419 333.330,323.397 339.333 C 319.109 342.999,314.895 346.636,314.034 347.414 C 313.172 348.192,310.112 350.344,307.234 352.197 C 304.355 354.049,301.820 355.789,301.600 356.063 C 301.380 356.337,299.085 357.730,296.501 359.160 C 293.916 360.589,290.030 362.803,287.865 364.079 C 285.701 365.356,283.764 366.400,283.561 366.400 C 283.358 366.400,281.304 367.329,278.996 368.463 C 272.913 371.455,259.125 376.800,257.492 376.800 C 256.724 376.800,255.872 377.160,255.600 377.600 C 255.328 378.040,254.068 378.400,252.800 378.400 C 251.532 378.400,250.302 378.711,250.067 379.092 C 249.831 379.473,248.460 380.010,247.019 380.286 C 245.579 380.562,242.780 381.137,240.800 381.564 C 226.426 384.663,203.837 386.805,193.600 386.038 C 176.337 384.746,163.147 382.779,153.400 380.042 C 151.750 379.579,149.230 378.878,147.800 378.484 C 137.602 375.673,130.197 372.695,116.000 365.696 C 83.778 349.809,55.367 322.288,37.029 289.200 C 30.146 276.780,26.971 269.096,20.832 250.000 C 11.604 221.293,12.113 176.133,22.004 146.000 C 23.015 142.920,24.274 138.780,24.801 136.800 C 25.328 134.820,27.292 129.960,29.166 126.000 C 31.040 122.040,33.242 117.360,34.059 115.600 C 37.049 109.160,49.458 89.479,53.300 85.084 C 54.125 84.140,56.420 81.447,58.400 79.100 C 63.023 73.621,73.621 63.023,79.100 58.400 C 81.447 56.420,84.140 54.133,85.084 53.319 C 87.976 50.822,100.680 42.098,103.972 40.348 C 105.681 39.440,107.556 38.324,108.139 37.868 C 109.567 36.752,115.821 33.566,123.600 29.992 C 132.543 25.883,132.516 25.894,139.200 23.726 C 152.939 19.269,159.242 17.633,167.200 16.458 C 171.820 15.776,177.580 14.901,180.000 14.514 C 186.039 13.548,213.694 13.430,219.152 14.348 M186.400 24.006 C 170.175 25.116,149.810 29.647,138.000 34.774 C 136.680 35.347,134.160 36.304,132.400 36.901 C 122.939 40.109,96.118 55.882,90.400 61.600 C 90.180 61.820,87.660 63.960,84.800 66.356 C 74.557 74.935,59.955 91.100,53.413 101.102 C 47.625 109.951,39.619 125.240,36.396 133.600 C 35.633 135.580,34.717 137.920,34.361 138.800 C 26.273 158.793,22.018 188.186,23.852 211.400 C 24.714 222.304,25.175 225.855,27.077 236.232 C 28.062 241.603,31.793 255.571,32.756 257.490 C 33.921 259.811,35.085 262.749,35.654 264.800 C 37.004 269.669,46.535 288.798,49.206 292.000 C 49.757 292.660,50.842 294.460,51.619 296.000 C 55.870 304.434,75.719 326.866,86.804 335.765 C 96.714 343.721,101.296 347.190,103.137 348.131 C 104.272 348.711,107.082 350.364,109.381 351.805 C 115.112 355.396,131.776 363.673,135.200 364.629 C 136.740 365.059,140.520 366.374,143.600 367.552 C 146.680 368.730,151.540 370.233,154.400 370.892 C 157.260 371.550,161.040 372.437,162.800 372.861 C 164.560 373.286,168.160 373.967,170.800 374.376 C 173.440 374.785,178.100 375.536,181.155 376.046 C 191.889 377.838,222.431 376.394,233.600 373.567 C 235.140 373.177,239.280 372.263,242.800 371.535 C 246.320 370.808,249.920 369.920,250.800 369.562 C 251.680 369.204,253.840 368.484,255.600 367.961 C 257.360 367.439,259.880 366.555,261.200 365.997 C 262.520 365.438,266.120 363.966,269.200 362.723 C 272.280 361.481,275.880 359.883,277.200 359.172 C 278.520 358.461,281.940 356.654,284.800 355.155 C 287.660 353.657,291.663 351.254,293.696 349.815 C 295.728 348.377,297.635 347.200,297.934 347.200 C 303.161 347.200,347.200 303.216,347.200 297.997 C 347.200 297.676,348.396 295.746,349.859 293.707 C 351.321 291.668,354.071 286.940,355.970 283.200 C 357.869 279.460,359.683 276.040,360.001 275.600 C 360.319 275.160,361.927 271.200,363.574 266.800 C 365.221 262.400,367.045 257.720,367.627 256.400 C 368.834 253.662,371.687 242.962,372.892 236.652 C 377.775 211.084,377.792 186.274,372.944 163.600 C 371.502 156.857,368.041 144.057,367.264 142.589 C 366.859 141.825,365.726 139.040,364.747 136.400 C 360.920 126.086,355.896 115.892,350.675 107.843 C 348.764 104.896,347.200 102.273,347.200 102.015 C 347.200 100.970,332.588 82.932,326.871 76.918 C 321.338 71.099,304.489 57.015,298.496 53.200 C 288.492 46.832,273.226 38.772,267.600 36.888 C 265.840 36.298,263.140 35.281,261.600 34.626 C 260.060 33.972,258.080 33.143,257.200 32.784 C 252.480 30.860,235.221 26.682,228.800 25.910 C 226.820 25.672,224.300 25.170,223.200 24.795 C 220.381 23.832,196.439 23.319,186.400 24.006 M146.400 119.658 C 157.154 124.650,162.306 134.682,159.551 145.261 C 152.931 170.674,116.095 166.267,116.018 140.053 C 115.969 123.713,131.982 112.965,146.400 119.658 M133.319 125.583 C 114.913 131.411,121.606 158.843,140.649 155.626 C 157.514 152.776,156.621 127.088,139.594 125.283 C 137.397 125.051,134.573 125.185,133.319 125.583 M263.812 166.058 C 272.742 169.019,284.800 177.782,284.800 181.309 C 284.800 181.909,285.072 182.400,285.405 182.400 C 286.577 182.400,289.749 190.593,290.463 195.466 C 291.250 200.839,291.266 256.335,290.483 266.967 C 289.797 276.293,290.615 275.944,269.400 275.975 C 246.173 276.009,248.800 280.399,248.800 241.554 C 248.800 203.777,248.549 202.109,242.464 199.462 C 239.099 197.999,226.553 197.678,223.797 198.985 C 222.808 199.454,220.650 200.430,219.000 201.156 L 216.000 202.475 216.000 237.130 C 216.000 270.977,215.961 271.833,214.342 273.892 L 212.684 276.000 195.293 276.000 C 179.361 276.000,177.766 275.873,176.283 274.492 C 174.629 272.951,172.637 179.414,174.102 172.089 C 175.026 167.472,176.168 167.200,194.631 167.200 C 213.809 167.200,215.955 167.742,215.988 172.600 C 216.003 174.819,215.922 174.822,220.353 172.466 C 222.354 171.402,225.883 169.914,228.195 169.160 C 230.508 168.406,232.760 167.521,233.200 167.195 C 234.071 166.548,237.172 165.870,244.000 164.831 C 249.581 163.981,259.383 164.588,263.812 166.058 M156.524 168.441 L 159.200 170.481 159.200 219.989 C 159.200 252.306,158.911 270.255,158.369 271.683 C 156.803 275.802,156.104 275.947,137.764 275.975 L 120.727 276.000 118.764 274.036 L 116.800 272.073 116.812 221.436 C 116.819 193.586,117.101 170.366,117.438 169.835 C 120.067 165.698,151.460 164.578,156.524 168.441 M244.400 172.398 C 233.693 174.052,221.071 179.047,215.937 183.664 C 212.617 186.650,209.815 184.539,209.451 178.780 L 209.200 174.800 195.200 174.800 L 181.200 174.800 180.994 222.105 L 180.787 269.410 182.594 269.894 C 185.654 270.714,206.409 270.451,208.053 269.572 C 209.546 268.773,209.600 267.533,209.600 234.111 L 209.600 199.479 211.408 197.780 C 213.698 195.629,221.836 192.000,224.371 192.000 C 225.430 192.000,227.309 191.612,228.548 191.138 C 233.564 189.219,247.054 192.706,250.923 196.922 C 255.082 201.454,255.200 202.569,255.200 237.298 L 255.200 269.600 269.600 269.600 L 284.000 269.600 283.991 233.800 C 283.981 191.692,283.562 189.162,275.211 180.811 C 270.628 176.228,255.421 170.208,251.200 171.306 C 250.980 171.363,247.920 171.855,244.400 172.398 M123.732 207.382 C 123.072 248.503,123.058 267.499,123.686 269.135 C 124.355 270.880,149.671 271.042,151.109 269.310 C 151.764 268.521,151.956 255.344,151.806 221.510 L 151.600 174.800 137.930 174.582 L 124.261 174.363 123.732 207.382 " stroke="none" fill="#000000" fill-rule="evenodd"></path><path id="path1" d="M186.800 7.252 C 175.101 7.848,165.916 9.267,153.600 12.382 C 142.641 15.153,141.562 15.478,134.000 18.280 C 123.924 22.014,122.956 22.423,123.323 22.789 C 123.512 22.979,127.612 21.670,132.434 19.880 C 142.667 16.082,155.045 12.664,165.200 10.831 C 169.160 10.117,174.335 9.152,176.700 8.686 C 182.160 7.612,219.869 7.591,223.372 8.659 C 224.818 9.100,227.980 9.693,230.400 9.976 C 232.820 10.260,239.266 11.555,244.724 12.855 C 250.183 14.155,254.824 15.043,255.039 14.828 C 255.514 14.353,255.361 14.308,244.400 11.765 C 239.560 10.642,233.800 9.504,231.600 9.237 C 229.400 8.970,225.980 8.426,224.000 8.028 C 219.014 7.028,199.291 6.616,186.800 7.252 M187.200 15.200 C 185.552 15.728,185.482 15.852,186.800 15.908 C 187.680 15.945,188.940 15.627,189.600 15.200 C 191.002 14.294,190.029 14.294,187.200 15.200 M256.800 15.655 C 257.460 15.909,258.720 16.422,259.600 16.794 C 260.480 17.167,263.900 18.426,267.200 19.593 C 270.500 20.759,274.100 22.076,275.200 22.518 C 276.547 23.060,276.939 23.059,276.400 22.514 C 275.454 21.558,260.490 15.990,257.600 15.519 C 256.500 15.339,256.140 15.401,256.800 15.655 M223.400 16.551 C 224.170 16.753,225.430 16.753,226.200 16.551 C 226.970 16.350,226.340 16.186,224.800 16.186 C 223.260 16.186,222.630 16.350,223.400 16.551 M114.943 26.357 C 111.501 28.028,108.275 29.805,107.774 30.306 C 106.908 31.172,108.459 30.506,118.200 25.829 C 122.087 23.963,123.278 23.112,121.800 23.260 C 121.470 23.293,118.384 24.687,114.943 26.357 M280.400 25.046 C 282.160 26.051,285.220 27.518,287.200 28.308 C 289.180 29.097,291.250 30.115,291.800 30.569 C 292.378 31.047,292.800 31.077,292.800 30.640 C 292.800 29.935,279.202 23.188,277.825 23.210 C 277.481 23.215,278.640 24.041,280.400 25.046 M102.172 33.277 C 100.506 34.367,97.806 36.008,96.172 36.923 C 84.674 43.359,58.073 67.251,49.544 78.800 C 47.595 81.440,45.549 84.077,44.997 84.660 C 44.446 85.243,42.860 87.369,41.474 89.383 C 36.883 96.056,40.585 92.116,47.485 82.985 C 59.249 67.419,80.016 47.863,93.557 39.600 C 94.278 39.160,97.463 37.229,100.634 35.308 C 103.805 33.388,106.400 31.678,106.400 31.508 C 106.400 30.827,105.052 31.391,102.172 33.277 M296.014 33.077 C 297.546 34.109,300.533 35.915,302.651 37.090 C 306.665 39.316,311.854 43.030,321.000 50.222 C 323.970 52.557,326.400 54.241,326.400 53.962 C 326.400 53.240,323.763 51.075,316.000 45.424 C 312.260 42.702,309.020 40.242,308.800 39.959 C 308.580 39.675,306.600 38.452,304.400 37.242 C 302.200 36.031,299.860 34.627,299.200 34.120 C 297.493 32.811,294.528 31.200,293.825 31.200 C 293.497 31.200,294.482 32.045,296.014 33.077 M327.200 54.656 C 327.200 54.886,331.283 59.152,336.273 64.137 C 341.264 69.121,347.399 75.810,349.908 79.000 C 354.867 85.307,356.794 86.878,352.853 81.400 C 347.793 74.368,327.200 52.900,327.200 54.656 M358.455 90.438 C 366.038 101.231,376.688 121.413,379.543 130.400 C 380.312 132.820,381.442 135.919,382.055 137.288 C 382.667 138.656,383.546 140.636,384.007 141.688 C 385.646 145.428,384.157 140.474,381.215 132.400 C 377.947 123.436,370.249 107.279,366.349 101.200 C 360.905 92.716,356.425 86.263,355.643 85.780 C 355.195 85.502,356.460 87.599,358.455 90.438 M37.890 94.547 C 33.867 100.871,30.837 106.897,32.285 105.695 C 33.008 105.095,33.600 104.295,33.600 103.918 C 33.600 103.540,34.890 101.214,36.467 98.749 C 38.044 96.284,39.160 94.093,38.947 93.880 C 38.734 93.668,38.259 93.968,37.890 94.547 M29.760 108.160 C 29.232 108.688,28.800 109.439,28.800 109.828 C 28.800 110.218,27.543 113.089,26.006 116.208 C 24.470 119.327,23.369 122.035,23.560 122.226 C 23.751 122.417,25.216 119.745,26.816 116.287 C 28.416 112.829,30.060 109.370,30.470 108.600 C 31.339 106.963,31.103 106.817,29.760 108.160 M18.070 135.224 C 16.429 139.645,15.264 143.699,15.481 144.231 C 15.699 144.769,15.902 144.572,15.937 143.789 C 15.972 143.013,16.338 141.753,16.750 140.989 C 18.130 138.435,21.780 127.913,21.413 127.547 C 21.214 127.348,19.710 130.802,18.070 135.224 M384.856 145.753 C 384.992 148.288,386.285 150.107,386.344 147.847 C 386.375 146.663,386.040 145.472,385.600 145.200 C 385.160 144.928,384.825 145.177,384.856 145.753 M14.108 146.485 C 12.937 150.443,10.044 164.981,7.996 177.200 C 6.877 183.881,7.376 220.870,8.660 226.400 L 9.496 230.000 9.077 226.000 C 8.188 217.501,7.901 181.899,8.691 178.000 C 9.137 175.800,9.903 171.480,10.393 168.400 C 10.883 165.320,12.178 159.063,13.270 154.495 C 14.362 149.927,15.072 146.005,14.847 145.780 C 14.622 145.555,14.289 145.873,14.108 146.485 M386.424 150.937 C 386.411 151.452,387.110 154.872,387.979 158.537 C 390.046 167.262,391.234 174.752,391.955 183.600 L 392.541 190.800 392.671 184.611 C 392.742 181.208,392.466 176.888,392.058 175.011 C 391.649 173.135,390.525 167.280,389.559 162.000 C 388.012 153.543,386.496 148.192,386.424 150.937 M249.000 166.173 C 250.210 166.356,252.190 166.356,253.400 166.173 C 254.610 165.990,253.620 165.840,251.200 165.840 C 248.780 165.840,247.790 165.990,249.000 166.173 M130.639 172.596 C 134.511 172.743,140.631 172.742,144.239 172.595 C 147.848 172.447,144.680 172.326,137.200 172.327 C 129.720 172.328,126.768 172.449,130.639 172.596 M157.018 191.200 C 157.018 193.180,157.174 193.990,157.365 193.000 C 157.555 192.010,157.555 190.390,157.365 189.400 C 157.174 188.410,157.018 189.220,157.018 191.200 M288.186 195.200 C 288.186 196.740,288.350 197.370,288.551 196.600 C 288.753 195.830,288.753 194.570,288.551 193.800 C 288.350 193.030,288.186 193.660,288.186 195.200 M393.018 200.000 C 393.018 201.980,393.174 202.790,393.365 201.800 C 393.555 200.810,393.555 199.190,393.365 198.200 C 393.174 197.210,393.018 198.020,393.018 200.000 M289.092 206.000 C 289.094 210.400,289.229 212.098,289.391 209.773 C 289.553 207.448,289.551 203.848,289.387 201.773 C 289.223 199.698,289.090 201.600,289.092 206.000 M391.907 215.600 C 391.311 224.579,390.130 232.344,387.941 241.670 C 387.006 245.651,386.411 249.078,386.619 249.286 C 387.109 249.776,390.180 236.783,390.800 231.600 C 391.062 229.400,391.639 226.160,392.081 224.400 C 392.523 222.640,392.772 218.320,392.634 214.800 L 392.384 208.400 391.907 215.600 M9.663 231.641 C 9.578 233.864,12.527 247.206,13.251 247.869 C 13.844 248.413,13.768 247.944,11.602 237.600 C 10.132 230.577,9.749 229.402,9.663 231.641 M13.665 249.943 C 13.592 251.667,14.221 253.729,18.257 265.008 C 19.794 269.302,21.214 272.652,21.413 272.453 C 21.720 272.146,19.020 264.139,16.809 258.800 C 16.445 257.920,15.603 255.220,14.938 252.800 C 14.273 250.380,13.700 249.094,13.665 249.943 M385.257 252.457 C 384.963 253.630,384.902 254.769,385.122 254.989 C 385.342 255.209,385.763 254.430,386.057 253.257 C 386.351 252.085,386.412 250.945,386.192 250.725 C 385.972 250.505,385.551 251.285,385.257 252.457 M384.063 257.011 C 384.028 257.787,383.682 259.047,383.293 259.811 C 382.028 262.299,380.939 265.122,379.580 269.439 C 378.408 273.162,371.994 287.142,369.413 291.600 C 368.903 292.480,366.754 296.192,364.637 299.848 C 356.587 313.749,340.769 332.549,326.400 345.293 C 322.768 348.515,306.622 360.800,306.021 360.800 C 305.843 360.800,302.233 362.960,298.000 365.600 C 293.767 368.240,290.140 370.400,289.940 370.400 C 289.023 370.400,274.351 377.817,274.659 378.125 C 274.850 378.317,277.120 377.418,279.704 376.129 C 282.287 374.839,285.840 373.134,287.600 372.339 C 289.360 371.544,293.619 369.163,297.063 367.047 C 300.508 364.931,303.511 363.200,303.737 363.200 C 304.183 363.200,320.946 351.260,321.600 350.477 C 321.820 350.213,323.440 348.782,325.200 347.297 C 340.595 334.306,355.556 316.640,365.824 299.326 C 369.504 293.121,379.200 274.130,379.200 273.127 C 379.200 272.909,380.483 269.305,382.051 265.118 C 383.619 260.932,384.728 257.077,384.514 256.553 C 384.301 256.029,384.098 256.235,384.063 257.011 M23.337 278.200 C 27.488 287.406,32.816 296.871,29.867 289.800 C 27.862 284.993,24.017 277.600,23.522 277.600 C 23.271 277.600,23.188 277.870,23.337 278.200 M33.990 298.383 C 36.686 303.152,39.637 307.565,39.083 306.000 C 38.460 304.238,32.624 294.386,31.961 293.976 C 31.571 293.735,32.484 295.718,33.990 298.383 M40.000 308.443 C 40.660 309.296,41.650 310.471,42.200 311.054 C 42.750 311.637,43.200 312.381,43.200 312.706 C 43.200 313.032,43.841 313.996,44.624 314.849 C 45.408 315.702,47.113 317.840,48.415 319.600 C 54.569 327.923,72.218 345.602,80.399 351.639 C 82.159 352.938,84.297 354.630,85.150 355.400 C 86.004 356.170,86.938 356.800,87.226 356.800 C 87.515 356.800,88.782 357.685,90.041 358.768 C 91.301 359.850,92.497 360.570,92.699 360.368 C 92.901 360.165,92.917 359.879,92.733 359.730 C 92.550 359.582,89.606 357.416,86.191 354.918 C 70.778 343.641,56.750 329.653,45.219 314.060 C 42.795 310.783,40.360 307.830,39.806 307.498 C 39.197 307.132,39.274 307.505,40.000 308.443 M96.000 362.590 C 100.536 365.749,106.741 369.199,106.141 368.227 C 105.835 367.734,103.159 365.951,100.193 364.265 C 93.638 360.540,92.273 359.994,96.000 362.590 M108.121 370.036 C 108.848 370.778,109.879 371.240,110.412 371.063 C 110.945 370.885,110.351 370.278,109.091 369.713 C 106.946 368.752,106.884 368.772,108.121 370.036 M112.000 371.606 C 112.000 372.216,121.816 376.851,122.230 376.437 C 122.427 376.240,120.322 374.981,117.552 373.639 C 112.203 371.048,112.000 370.974,112.000 371.606 M124.800 377.847 C 125.900 378.479,129.680 379.971,133.200 381.164 C 136.720 382.356,140.374 383.704,141.321 384.159 C 142.268 384.614,143.468 384.844,143.988 384.671 C 144.507 384.498,140.673 382.872,135.466 381.059 C 122.264 376.461,122.523 376.539,124.800 377.847 M263.740 381.414 C 259.417 383.034,256.302 384.501,256.819 384.673 C 257.335 384.845,258.532 384.612,259.479 384.156 C 260.426 383.699,264.080 382.240,267.600 380.913 C 271.120 379.586,273.460 378.493,272.800 378.484 C 272.140 378.475,268.063 379.794,263.740 381.414 M145.781 385.248 C 146.469 385.935,160.469 389.275,167.200 390.358 C 170.500 390.888,174.709 391.655,176.554 392.061 C 178.399 392.468,183.439 392.738,187.754 392.662 L 195.600 392.523 186.800 391.959 C 181.960 391.648,175.840 391.008,173.200 390.537 C 170.560 390.066,166.420 389.334,164.000 388.911 C 161.580 388.489,156.660 387.391,153.067 386.471 C 146.180 384.710,145.054 384.520,145.781 385.248 M251.200 385.600 L 249.200 386.241 251.353 386.320 C 252.537 386.364,253.728 386.040,254.000 385.600 C 254.562 384.691,254.040 384.691,251.200 385.600 M245.533 386.729 C 245.123 387.133,234.832 389.274,227.457 390.490 C 224.456 390.984,218.220 391.645,213.600 391.958 L 205.200 392.527 212.352 392.664 C 216.285 392.739,221.505 392.439,223.952 391.999 C 246.273 387.978,252.537 386.497,247.533 386.424 C 246.617 386.411,245.717 386.548,245.533 386.729 " stroke="none" fill="#9f9f9f" fill-rule="evenodd"></path><path id="path2" d="M0.000 200.000 L 0.000 400.000 200.000 400.000 L 400.000 400.000 400.000 200.000 L 400.000 0.000 200.000 0.000 L 0.000 0.000 0.000 200.000 M215.600 7.216 C 226.524 7.933,237.150 9.518,245.200 11.632 C 247.840 12.325,250.900 13.079,252.000 13.306 C 253.100 13.534,254.720 14.023,255.600 14.393 C 256.480 14.764,257.920 15.238,258.800 15.449 C 262.116 16.241,275.785 21.535,280.400 23.815 C 283.040 25.119,286.820 26.960,288.800 27.907 C 290.780 28.854,293.111 30.072,293.981 30.614 C 300.943 34.957,304.120 36.800,304.643 36.800 C 304.980 36.800,306.323 37.697,307.628 38.794 C 308.932 39.891,311.486 41.781,313.302 42.994 C 326.738 51.969,343.801 68.833,356.008 85.200 C 367.644 100.802,381.252 127.503,384.548 141.200 C 384.760 142.080,385.233 143.520,385.600 144.400 C 385.967 145.280,386.489 146.900,386.761 148.000 C 387.032 149.100,387.994 152.880,388.897 156.400 C 391.208 165.402,393.886 189.126,393.819 200.000 C 393.758 210.002,391.207 234.780,389.606 240.914 C 387.374 249.469,384.715 258.627,383.948 260.400 C 383.567 261.280,382.489 264.340,381.553 267.200 C 380.617 270.060,378.491 275.280,376.828 278.800 C 375.166 282.320,373.141 286.640,372.329 288.400 C 371.518 290.160,369.132 294.416,367.027 297.859 C 364.922 301.301,363.200 304.313,363.200 304.552 C 363.200 305.090,358.379 311.746,353.749 317.600 C 351.834 320.020,349.136 323.440,347.753 325.200 C 344.500 329.339,329.339 344.500,325.200 347.753 C 323.440 349.136,320.020 351.838,317.600 353.758 C 310.081 359.721,295.557 368.977,288.636 372.218 C 275.576 378.331,267.373 381.673,259.600 384.045 C 257.840 384.582,255.680 385.292,254.800 385.623 C 230.819 394.632,180.817 395.612,152.800 387.623 C 150.820 387.058,147.580 386.140,145.600 385.583 C 135.740 382.807,126.425 379.278,117.223 374.831 C 113.089 372.834,109.441 371.200,109.116 371.200 C 108.792 371.200,107.958 370.696,107.263 370.080 C 106.568 369.463,104.200 367.974,102.000 366.770 C 97.821 364.482,81.857 353.414,78.400 350.407 C 61.303 335.538,53.911 327.836,45.378 316.000 C 42.681 312.260,40.266 309.020,40.011 308.800 C 39.013 307.939,33.560 298.846,28.977 290.400 C 23.884 281.014,15.200 259.617,15.200 256.453 C 15.200 255.752,14.853 254.553,14.428 253.789 C 13.514 252.142,10.837 240.935,9.607 233.600 C 9.127 230.740,8.403 226.600,7.997 224.400 C 5.113 208.759,7.118 173.642,11.966 154.872 C 12.865 151.392,13.600 147.882,13.600 147.072 C 13.600 146.262,13.921 145.600,14.312 145.600 C 14.704 145.600,15.196 144.430,15.406 143.000 C 16.078 138.412,20.640 126.769,26.462 114.787 C 27.748 112.140,28.800 109.686,28.800 109.333 C 28.800 108.981,29.700 107.513,30.800 106.071 C 31.900 104.629,32.800 103.162,32.800 102.811 C 32.800 102.094,38.986 92.136,40.332 90.687 C 40.809 90.173,43.180 86.965,45.600 83.559 C 54.200 71.455,71.455 54.200,83.559 45.600 C 86.965 43.180,90.173 40.809,90.687 40.332 C 92.136 38.986,102.094 32.800,102.811 32.800 C 103.162 32.800,104.563 31.969,105.924 30.954 C 107.286 29.938,109.660 28.530,111.200 27.824 C 127.322 20.433,133.201 17.990,136.751 17.211 C 138.088 16.917,139.387 16.345,139.638 15.938 C 139.889 15.532,141.132 15.200,142.400 15.200 C 143.668 15.200,144.928 14.840,145.200 14.400 C 145.472 13.960,146.578 13.600,147.658 13.600 C 148.738 13.600,150.247 13.261,151.011 12.847 C 154.997 10.688,169.980 8.278,186.344 7.165 C 192.693 6.732,198.093 6.173,198.344 5.920 C 198.595 5.668,200.240 5.703,202.000 5.998 C 203.760 6.293,209.880 6.841,215.600 7.216 " stroke="none" fill="#ffffff" fill-rule="evenodd"></path><path id="path3" d="M198.611 7.774 C 199.827 7.958,201.627 7.953,202.611 7.763 C 203.595 7.573,202.600 7.423,200.400 7.429 C 198.200 7.435,197.395 7.590,198.611 7.774 M178.253 8.414 C 178.025 8.641,175.715 9.164,173.119 9.574 L 168.400 10.320 173.200 9.903 C 175.840 9.673,180.520 9.209,183.600 8.872 L 189.200 8.259 183.933 8.129 C 181.037 8.058,178.480 8.186,178.253 8.414 M216.400 8.825 C 219.480 9.188,224.160 9.669,226.800 9.893 L 231.600 10.301 227.600 9.519 C 225.400 9.088,220.720 8.608,217.200 8.451 L 210.800 8.165 216.400 8.825 M162.800 11.200 L 160.400 11.811 163.200 11.893 C 164.740 11.938,166.540 11.627,167.200 11.200 C 168.677 10.245,166.551 10.245,162.800 11.200 M233.200 11.200 C 233.472 11.640,235.023 11.964,236.647 11.920 C 239.300 11.849,239.396 11.775,237.600 11.200 C 234.710 10.275,232.628 10.275,233.200 11.200 M155.600 12.800 C 154.135 13.430,154.168 13.491,156.000 13.532 C 157.100 13.556,158.540 13.227,159.200 12.800 C 160.775 11.782,157.968 11.782,155.600 12.800 M241.600 12.734 C 242.260 13.111,244.420 13.632,246.400 13.890 L 250.000 14.361 246.000 13.196 C 241.511 11.888,239.807 11.710,241.600 12.734 M147.600 14.778 C 145.840 15.358,144.940 15.865,145.600 15.904 C 146.260 15.943,148.420 15.465,150.400 14.841 C 152.380 14.217,153.280 13.711,152.400 13.715 C 151.520 13.719,149.360 14.198,147.600 14.778 M180.000 14.514 C 177.580 14.901,171.820 15.776,167.200 16.458 C 159.242 17.633,152.939 19.269,139.200 23.726 C 132.516 25.894,132.543 25.883,123.600 29.992 C 115.821 33.566,109.567 36.752,108.139 37.868 C 107.556 38.324,105.681 39.440,103.972 40.348 C 100.680 42.098,87.976 50.822,85.084 53.319 C 84.140 54.133,81.447 56.420,79.100 58.400 C 73.621 63.023,63.023 73.621,58.400 79.100 C 56.420 81.447,54.125 84.140,53.300 85.084 C 49.458 89.479,37.049 109.160,34.059 115.600 C 33.242 117.360,31.040 122.040,29.166 126.000 C 27.292 129.960,25.328 134.820,24.801 136.800 C 24.274 138.780,23.015 142.920,22.004 146.000 C 12.113 176.133,11.604 221.293,20.832 250.000 C 26.971 269.096,30.146 276.780,37.029 289.200 C 60.970 332.398,102.742 366.067,147.800 378.484 C 149.230 378.878,151.750 379.579,153.400 380.042 C 163.147 382.779,176.337 384.746,193.600 386.038 C 203.837 386.805,226.426 384.663,240.800 381.564 C 242.780 381.137,245.579 380.562,247.019 380.286 C 248.460 380.010,249.831 379.473,250.067 379.092 C 250.302 378.711,251.532 378.400,252.800 378.400 C 254.068 378.400,255.328 378.040,255.600 377.600 C 255.872 377.160,256.724 376.800,257.492 376.800 C 259.125 376.800,272.913 371.455,278.996 368.463 C 281.304 367.329,283.358 366.400,283.561 366.400 C 283.764 366.400,285.701 365.356,287.865 364.079 C 290.030 362.803,293.916 360.589,296.501 359.160 C 299.085 357.730,301.380 356.337,301.600 356.063 C 301.820 355.789,304.355 354.049,307.234 352.197 C 310.112 350.344,313.172 348.192,314.034 347.414 C 314.895 346.636,319.109 342.999,323.397 339.333 C 330.419 333.330,339.993 323.277,346.964 314.589 C 349.047 311.992,355.996 301.705,361.415 293.194 C 370.112 279.536,381.072 249.800,383.528 233.200 C 386.305 214.427,386.539 211.215,386.177 196.800 C 385.582 173.100,383.379 159.207,377.552 142.400 C 377.018 140.860,376.038 137.980,375.373 136.000 C 373.995 131.890,371.424 125.772,370.330 124.000 C 369.923 123.340,369.397 122.260,369.162 121.600 C 368.637 120.128,364.281 111.587,360.941 105.480 C 358.626 101.247,349.208 87.283,348.073 86.400 C 347.790 86.180,346.319 84.380,344.803 82.400 C 338.752 74.495,325.505 61.248,317.600 55.197 C 315.620 53.681,313.820 52.197,313.600 51.898 C 312.755 50.749,300.227 42.331,296.800 40.609 C 294.820 39.614,292.814 38.439,292.341 37.999 C 290.243 36.040,269.534 26.355,263.200 24.370 C 260.780 23.611,255.629 21.943,251.753 20.663 C 247.877 19.383,239.957 17.607,234.153 16.716 C 228.349 15.824,221.598 14.759,219.152 14.348 C 213.694 13.430,186.039 13.548,180.000 14.514 M221.600 15.927 C 225.340 16.344,230.920 17.218,234.000 17.868 C 246.311 20.469,254.839 22.613,255.560 23.288 C 255.978 23.680,256.973 24.000,257.771 24.000 C 258.569 24.000,259.847 24.338,260.611 24.750 C 261.375 25.163,264.700 26.483,268.000 27.684 C 300.749 39.599,333.630 66.425,354.777 98.481 C 358.086 103.496,361.155 108.035,361.597 108.566 C 362.039 109.098,362.403 109.818,362.407 110.166 C 362.411 110.515,364.147 114.220,366.265 118.400 C 368.383 122.580,371.102 128.700,372.307 132.000 C 373.513 135.300,374.837 138.625,375.250 139.389 C 375.662 140.153,376.000 141.328,376.000 142.000 C 376.000 142.672,376.329 143.847,376.732 144.611 C 377.482 146.035,379.194 152.992,380.714 160.800 C 381.186 163.220,381.983 167.000,382.487 169.200 C 385.625 182.917,385.649 219.832,382.524 227.452 C 382.016 228.691,381.600 231.049,381.600 232.692 C 381.600 234.335,381.277 236.022,380.882 236.440 C 380.487 236.858,379.989 238.640,379.774 240.400 C 379.560 242.160,378.762 245.580,378.000 248.000 C 377.238 250.420,376.439 253.750,376.224 255.400 C 376.008 257.050,375.538 258.400,375.180 258.400 C 374.821 258.400,374.291 259.476,374.002 260.791 C 373.713 262.106,373.145 263.387,372.738 263.638 C 372.332 263.889,372.000 264.819,372.000 265.704 C 372.000 266.590,371.460 267.854,370.800 268.514 C 370.140 269.174,369.600 270.567,369.600 271.610 C 369.600 272.653,369.240 273.728,368.800 274.000 C 368.360 274.272,368.000 275.373,368.000 276.447 C 368.000 277.521,367.657 278.400,367.238 278.400 C 366.818 278.400,365.855 279.750,365.097 281.400 C 364.339 283.050,363.604 284.548,363.464 284.728 C 363.036 285.281,360.000 281.423,360.000 280.325 C 360.000 279.758,360.360 279.072,360.800 278.800 C 361.240 278.528,361.600 277.637,361.600 276.819 C 361.600 276.002,361.870 275.213,362.200 275.067 C 363.018 274.703,365.600 269.705,365.600 268.485 C 365.600 267.943,366.500 265.634,367.600 263.354 C 368.700 261.073,369.600 258.147,369.600 256.851 C 369.600 255.555,369.960 254.272,370.400 254.000 C 370.840 253.728,371.200 252.668,371.200 251.644 C 371.200 250.620,371.738 248.752,372.395 247.491 C 373.052 246.231,373.592 244.411,373.595 243.447 C 373.598 242.483,373.960 241.472,374.400 241.200 C 374.840 240.928,375.200 239.398,375.200 237.799 C 375.200 236.200,375.723 231.631,376.362 227.646 C 378.539 214.077,379.445 199.011,378.516 191.827 C 378.045 188.182,377.436 182.412,377.162 179.005 C 376.888 175.598,376.335 172.607,375.932 172.358 C 375.530 172.109,375.200 170.420,375.200 168.605 C 375.200 165.594,373.913 159.450,371.960 153.143 C 371.542 151.792,371.200 150.077,371.200 149.332 C 371.200 148.588,370.877 147.353,370.482 146.589 C 370.087 145.825,369.220 143.760,368.555 142.000 C 365.608 134.202,362.724 127.334,361.031 124.081 C 360.024 122.145,359.200 120.262,359.200 119.896 C 359.200 119.530,357.940 117.261,356.400 114.854 C 354.860 112.447,353.600 110.265,353.600 110.006 C 353.600 109.747,352.942 108.560,352.137 107.368 C 351.333 106.175,349.263 103.059,347.537 100.443 C 345.812 97.826,343.320 94.349,342.000 92.714 C 340.680 91.080,338.700 88.541,337.600 87.072 C 331.488 78.908,304.576 54.400,301.722 54.400 C 301.288 54.400,300.813 54.084,300.667 53.697 C 300.241 52.576,283.676 42.598,277.776 39.910 C 272.699 37.596,270.953 36.833,265.200 34.416 C 259.667 32.092,243.914 27.335,237.600 26.082 C 233.860 25.340,229.265 24.388,227.389 23.967 C 225.512 23.545,222.028 23.200,219.646 23.200 C 217.265 23.200,212.500 22.798,209.058 22.308 C 204.411 21.645,199.504 21.654,190.000 22.344 C 177.458 23.254,174.093 23.687,164.400 25.636 C 161.760 26.167,158.248 26.774,156.595 26.985 C 154.942 27.196,153.391 27.691,153.148 28.085 C 152.905 28.478,151.868 28.800,150.844 28.800 C 149.820 28.800,147.952 29.338,146.691 29.995 C 145.431 30.652,143.791 31.192,143.047 31.195 C 142.303 31.198,141.472 31.560,141.200 32.000 C 140.928 32.440,140.019 32.800,139.180 32.800 C 138.341 32.800,136.472 33.310,135.027 33.933 C 133.582 34.557,130.960 35.685,129.200 36.440 C 121.074 39.927,111.605 44.961,105.105 49.250 C 101.197 51.828,97.179 54.386,96.176 54.934 C 90.430 58.072,68.795 77.594,64.472 83.541 C 63.043 85.506,61.285 87.582,57.549 91.713 C 56.697 92.655,56.000 93.825,56.000 94.313 C 56.000 94.801,55.640 95.200,55.200 95.200 C 54.760 95.200,54.400 95.575,54.400 96.034 C 54.400 96.492,54.040 97.302,53.600 97.834 C 53.160 98.365,52.056 99.700,51.148 100.800 C 50.035 102.149,49.362 102.474,49.082 101.800 C 48.854 101.250,48.157 100.800,47.533 100.800 C 46.032 100.800,46.074 98.696,47.587 98.116 C 48.262 97.857,48.570 97.130,48.301 96.430 C 48.041 95.754,48.227 95.200,48.714 95.200 C 49.201 95.200,49.600 94.859,49.600 94.441 C 49.600 94.024,50.500 92.711,51.600 91.524 C 52.700 90.337,53.600 88.909,53.600 88.350 C 53.600 87.791,53.895 87.213,54.255 87.067 C 54.616 86.920,57.100 84.100,59.777 80.800 C 67.575 71.184,79.733 59.432,88.000 53.519 C 89.980 52.103,91.780 50.729,92.000 50.467 C 92.817 49.494,98.314 45.600,98.871 45.600 C 99.189 45.600,100.629 44.700,102.071 43.600 C 103.513 42.500,105.077 41.600,105.547 41.600 C 106.016 41.600,106.400 41.325,106.400 40.990 C 106.400 40.654,107.123 40.024,108.008 39.590 C 108.892 39.155,112.762 37.220,116.608 35.289 C 124.703 31.223,130.129 28.749,135.200 26.811 C 137.180 26.055,139.425 25.113,140.189 24.718 C 140.953 24.323,142.243 24.000,143.056 24.000 C 143.868 24.000,144.791 23.743,145.105 23.428 C 146.061 22.472,154.011 20.473,165.200 18.376 C 167.400 17.964,170.820 17.276,172.800 16.848 C 174.780 16.420,178.380 16.018,180.800 15.955 C 183.220 15.892,186.100 15.534,187.200 15.160 C 189.576 14.351,211.948 14.850,221.600 15.927 M251.600 15.200 C 252.480 15.578,253.920 15.877,254.800 15.864 C 256.086 15.845,256.008 15.715,254.400 15.200 C 251.665 14.324,249.561 14.324,251.600 15.200 M137.600 18.032 C 135.180 19.074,133.763 19.942,134.451 19.963 C 135.139 19.983,137.479 19.119,139.651 18.042 C 144.670 15.554,143.375 15.548,137.600 18.032 M259.200 17.360 C 262.924 19.034,264.457 19.626,269.200 21.222 C 271.400 21.963,274.009 22.952,274.999 23.419 C 275.988 23.887,276.990 24.077,277.224 23.842 C 277.679 23.387,276.617 22.939,267.200 19.617 C 263.900 18.453,260.575 17.163,259.811 16.750 C 259.047 16.338,257.967 16.023,257.411 16.051 C 256.855 16.079,257.660 16.668,259.200 17.360 M126.800 21.985 C 124.160 23.031,122.360 23.901,122.800 23.918 C 123.887 23.959,131.904 21.163,132.549 20.518 C 133.476 19.591,131.691 20.046,126.800 21.985 M223.200 24.795 C 224.300 25.170,226.820 25.672,228.800 25.910 C 235.221 26.682,252.480 30.860,257.200 32.784 C 258.080 33.143,260.060 33.972,261.600 34.626 C 263.140 35.281,265.840 36.298,267.600 36.888 C 273.226 38.772,288.492 46.832,298.496 53.200 C 304.489 57.015,321.338 71.099,326.871 76.918 C 332.588 82.932,347.200 100.970,347.200 102.015 C 347.200 102.273,348.764 104.896,350.675 107.843 C 355.896 115.892,360.920 126.086,364.747 136.400 C 365.726 139.040,366.859 141.825,367.264 142.589 C 368.041 144.057,371.502 156.857,372.944 163.600 C 377.792 186.274,377.775 211.084,372.892 236.652 C 371.687 242.962,368.834 253.662,367.627 256.400 C 367.045 257.720,365.221 262.400,363.574 266.800 C 361.927 271.200,360.319 275.160,360.001 275.600 C 359.683 276.040,357.869 279.460,355.970 283.200 C 354.071 286.940,351.321 291.668,349.859 293.707 C 348.396 295.746,347.200 297.676,347.200 297.997 C 347.200 303.216,303.161 347.200,297.934 347.200 C 297.635 347.200,295.728 348.377,293.696 349.815 C 291.663 351.254,287.660 353.657,284.800 355.155 C 281.940 356.654,278.520 358.461,277.200 359.172 C 275.880 359.883,272.280 361.481,269.200 362.723 C 266.120 363.966,262.520 365.438,261.200 365.997 C 259.880 366.555,257.360 367.439,255.600 367.961 C 253.840 368.484,251.680 369.204,250.800 369.562 C 249.920 369.920,246.320 370.808,242.800 371.535 C 239.280 372.263,235.140 373.177,233.600 373.567 C 222.431 376.394,191.889 377.838,181.155 376.046 C 178.100 375.536,173.440 374.785,170.800 374.376 C 168.160 373.967,164.560 373.286,162.800 372.861 C 161.040 372.437,157.260 371.550,154.400 370.892 C 151.540 370.233,146.680 368.730,143.600 367.552 C 140.520 366.374,136.740 365.059,135.200 364.629 C 131.776 363.673,115.112 355.396,109.381 351.805 C 107.082 350.364,104.272 348.711,103.137 348.131 C 101.296 347.190,96.714 343.721,86.804 335.765 C 75.719 326.866,55.870 304.434,51.619 296.000 C 50.842 294.460,49.757 292.660,49.206 292.000 C 46.535 288.798,37.004 269.669,35.654 264.800 C 35.085 262.749,33.921 259.811,32.756 257.490 C 31.793 255.571,28.062 241.603,27.077 236.232 C 25.175 225.855,24.714 222.304,23.852 211.400 C 22.018 188.186,26.273 158.793,34.361 138.800 C 34.717 137.920,35.633 135.580,36.396 133.600 C 39.619 125.240,47.625 109.951,53.413 101.102 C 59.955 91.100,74.557 74.935,84.800 66.356 C 87.660 63.960,90.180 61.820,90.400 61.600 C 96.118 55.882,122.939 40.109,132.400 36.901 C 134.160 36.304,136.680 35.347,138.000 34.774 C 145.191 31.652,162.101 27.099,172.800 25.404 C 185.281 23.427,218.034 23.031,223.200 24.795 M118.800 25.485 C 117.480 26.239,114.780 27.554,112.800 28.406 C 108.965 30.057,96.750 37.562,97.860 37.586 C 98.223 37.594,101.024 35.980,104.085 34.000 C 107.146 32.020,109.837 30.400,110.067 30.400 C 111.227 30.400,121.600 25.247,121.600 24.670 C 121.600 23.850,121.723 23.815,118.800 25.485 M281.862 26.149 C 282.503 27.217,286.972 29.600,288.334 29.600 C 288.822 29.600,291.137 30.890,293.478 32.466 C 295.819 34.043,297.905 35.162,298.114 34.953 C 298.606 34.461,290.037 29.369,286.400 27.992 C 284.860 27.409,283.081 26.542,282.446 26.066 C 281.591 25.423,281.440 25.445,281.862 26.149 M304.287 38.647 C 305.105 39.171,307.552 40.994,309.724 42.697 C 311.896 44.400,313.831 45.636,314.024 45.442 C 314.462 45.004,304.430 37.582,303.487 37.647 C 303.109 37.673,303.469 38.123,304.287 38.647 M90.743 41.423 C 89.392 42.621,87.232 44.430,85.943 45.444 L 83.600 47.288 86.400 45.495 C 89.817 43.307,94.691 39.191,93.828 39.223 C 93.483 39.236,92.094 40.226,90.743 41.423 M315.246 46.166 C 315.299 46.895,325.158 54.644,326.625 55.110 C 327.858 55.501,327.918 55.554,321.000 50.102 C 317.810 47.589,315.221 45.817,315.246 46.166 M76.477 52.462 C 68.164 59.555,55.933 72.038,51.063 78.400 C 47.073 83.613,47.588 83.101,57.474 72.040 C 62.655 66.243,69.507 59.478,75.200 54.539 C 82.587 48.131,83.567 47.225,83.122 47.213 C 82.859 47.206,79.869 49.568,76.477 52.462 M331.200 59.864 C 333.620 62.081,337.484 65.989,339.787 68.548 C 342.089 71.107,343.979 72.889,343.987 72.508 C 344.006 71.523,332.072 59.361,329.200 57.439 C 327.880 56.555,328.780 57.647,331.200 59.864 M344.800 73.338 C 344.800 73.934,347.728 77.748,352.678 83.600 C 353.422 84.480,354.822 86.484,355.790 88.053 C 356.757 89.622,358.333 91.602,359.293 92.453 C 360.252 93.304,359.635 92.020,357.922 89.600 C 353.316 83.095,344.800 72.542,344.800 73.338 M42.800 89.027 C 39.073 94.075,37.180 97.344,38.728 96.060 C 39.428 95.479,40.000 94.538,40.000 93.969 C 40.000 93.399,40.285 92.813,40.633 92.667 C 41.544 92.283,45.883 86.412,45.512 86.067 C 45.340 85.907,44.120 87.239,42.800 89.027 M360.858 94.867 C 360.891 95.270,361.605 96.680,362.447 98.000 C 363.288 99.320,364.319 101.120,364.738 102.000 C 365.158 102.880,366.601 105.220,367.947 107.200 C 369.292 109.180,370.395 111.195,370.397 111.677 C 370.401 112.878,372.735 117.466,373.619 118.012 C 374.786 118.733,370.563 110.050,365.954 102.250 C 361.498 94.710,360.761 93.641,360.858 94.867 M35.333 100.533 C 34.317 102.084,33.647 103.513,33.844 103.710 C 34.041 103.907,34.981 102.748,35.933 101.133 C 38.180 97.326,37.731 96.876,35.333 100.533 M31.359 107.000 C 30.507 108.210,29.538 110.074,29.206 111.142 C 28.874 112.210,27.027 116.208,25.101 120.026 C 23.175 123.844,21.600 127.282,21.600 127.667 C 21.600 128.505,17.833 138.853,16.601 141.399 C 16.123 142.388,15.923 143.390,16.158 143.624 C 16.393 143.859,17.029 142.870,17.573 141.426 C 18.117 139.982,18.857 138.080,19.219 137.200 C 19.580 136.320,20.482 133.800,21.222 131.600 C 23.022 126.255,23.181 125.889,28.617 114.600 C 31.213 109.210,33.240 104.800,33.123 104.800 C 33.005 104.800,32.212 105.790,31.359 107.000 M128.897 119.701 C 110.543 128.848,111.511 153.896,130.487 160.832 C 146.395 166.646,162.964 152.800,159.904 136.249 C 157.276 122.029,141.317 113.512,128.897 119.701 M147.036 121.351 C 153.688 124.128,158.400 131.595,158.400 139.360 C 158.400 144.713,156.104 150.184,154.521 148.601 C 153.388 147.468,153.318 145.068,154.400 144.400 C 154.840 144.128,155.200 142.508,155.200 140.800 C 155.200 139.092,154.840 137.472,154.400 137.200 C 153.960 136.928,153.600 135.844,153.600 134.791 C 153.600 130.287,143.549 123.200,137.163 123.200 C 134.438 123.200,127.200 125.592,127.200 126.492 C 127.200 126.881,126.660 127.200,126.000 127.200 C 125.340 127.200,124.800 127.521,124.800 127.914 C 124.800 128.724,122.364 129.831,121.808 129.274 C 121.608 129.074,122.077 127.840,122.850 126.531 C 126.514 120.328,138.457 117.771,147.036 121.351 M376.413 123.600 C 376.723 124.480,377.805 127.720,378.817 130.800 C 381.185 138.007,383.187 142.679,383.692 142.174 C 383.911 141.955,383.383 140.206,382.517 138.288 C 381.652 136.370,380.186 132.460,379.260 129.600 C 378.333 126.740,377.187 123.860,376.712 123.200 C 376.018 122.235,375.960 122.314,376.413 123.600 M146.171 127.676 C 157.440 136.272,154.064 153.359,140.649 155.626 C 127.882 157.783,118.438 145.169,124.002 133.391 C 127.751 125.457,139.343 122.468,146.171 127.676 M384.064 144.135 C 384.029 144.870,384.508 147.570,385.129 150.135 C 385.750 152.701,386.514 155.880,386.828 157.200 C 387.141 158.520,387.521 159.240,387.673 158.800 C 387.825 158.360,387.090 154.580,386.039 150.400 C 384.988 146.220,384.100 143.401,384.064 144.135 M14.900 147.300 C 14.233 150.635,14.879 151.281,15.600 148.000 C 15.904 146.617,15.985 145.319,15.782 145.115 C 15.578 144.911,15.181 145.894,14.900 147.300 M12.444 157.457 C 12.116 158.919,12.044 160.311,12.285 160.552 C 12.887 161.154,13.841 157.112,13.398 155.834 C 13.201 155.265,12.772 155.996,12.444 157.457 M388.151 162.000 C 388.130 163.320,388.422 165.120,388.800 166.000 L 389.488 167.600 389.449 166.000 C 389.428 165.120,389.136 163.320,388.800 162.000 L 388.189 159.600 388.151 162.000 M11.334 162.500 C 11.261 163.215,10.972 165.015,10.694 166.500 C 10.305 168.580,10.409 168.994,11.149 168.305 C 11.702 167.790,11.974 166.095,11.789 164.305 C 11.613 162.597,11.408 161.785,11.334 162.500 M244.000 164.831 C 237.172 165.870,234.071 166.548,233.200 167.195 C 232.760 167.521,230.508 168.406,228.195 169.160 C 225.883 169.914,222.354 171.402,220.353 172.466 C 215.922 174.822,216.003 174.819,215.988 172.600 C 215.955 167.742,213.809 167.200,194.631 167.200 C 176.168 167.200,175.026 167.472,174.102 172.089 C 172.637 179.414,174.629 272.951,176.283 274.492 C 177.766 275.873,179.361 276.000,195.293 276.000 L 212.684 276.000 214.342 273.892 C 215.961 271.833,216.000 270.977,216.000 237.130 L 216.000 202.475 219.000 201.156 C 220.650 200.430,222.808 199.454,223.797 198.985 C 226.553 197.678,239.099 197.999,242.464 199.462 C 248.549 202.109,248.800 203.777,248.800 241.554 C 248.800 280.399,246.173 276.009,269.400 275.975 C 290.615 275.944,289.797 276.293,290.483 266.967 C 291.266 256.335,291.250 200.839,290.463 195.466 C 289.749 190.593,286.577 182.400,285.405 182.400 C 285.072 182.400,284.800 181.909,284.800 181.309 C 284.800 180.708,282.971 178.359,280.734 176.087 C 271.990 167.203,257.529 162.772,244.000 164.831 M258.647 166.436 C 272.812 168.493,283.527 177.635,288.142 191.600 C 289.902 196.924,289.060 252.190,287.173 255.244 C 285.650 257.709,285.391 254.057,285.066 225.436 C 284.687 192.113,284.444 190.328,279.388 183.648 C 267.958 168.552,246.582 166.198,223.200 177.461 C 219.900 179.051,216.502 180.992,215.649 181.776 C 212.581 184.593,211.870 183.806,210.886 176.501 C 210.307 172.204,211.084 172.400,194.594 172.400 L 179.718 172.400 179.030 174.800 C 178.459 176.792,178.173 180.065,177.637 190.733 C 177.617 191.137,177.386 191.252,177.124 190.990 C 176.297 190.164,175.928 171.654,176.714 170.462 C 177.312 169.556,180.949 169.252,194.532 168.973 C 213.392 168.585,215.200 169.011,215.200 173.847 C 215.200 176.690,216.419 177.176,219.005 175.363 C 220.212 174.517,222.640 173.198,224.400 172.431 C 226.160 171.664,228.320 170.721,229.200 170.335 C 238.231 166.373,248.686 164.989,258.647 166.436 M120.826 167.666 C 116.665 169.471,116.825 167.324,116.812 221.436 L 116.800 272.073 118.764 274.036 L 120.727 276.000 137.764 275.975 C 156.104 275.947,156.803 275.802,158.369 271.683 C 158.911 270.255,159.200 252.306,159.200 219.989 L 159.200 170.481 156.524 168.441 C 153.197 165.903,126.239 165.318,120.826 167.666 M153.117 168.761 C 157.755 169.837,157.757 169.848,157.243 190.400 C 156.424 223.130,155.912 230.856,154.673 229.161 C 153.828 228.006,153.600 222.186,153.600 201.795 C 153.600 185.471,153.294 175.323,152.772 174.347 C 152.000 172.906,150.962 172.800,137.600 172.800 C 120.525 172.800,121.644 171.983,121.502 184.547 C 121.332 199.591,120.492 209.843,119.400 210.203 C 117.946 210.683,117.946 170.788,119.400 169.847 C 119.950 169.491,126.520 169.003,134.000 168.763 C 141.480 168.522,148.140 168.261,148.800 168.182 C 149.460 168.103,151.403 168.364,153.117 168.761 M389.719 170.800 C 389.667 172.560,390.163 175.620,390.822 177.600 L 392.021 181.200 391.480 178.000 C 391.183 176.240,390.686 173.180,390.377 171.200 L 389.814 167.600 389.719 170.800 M9.258 173.800 C 8.985 176.110,8.635 181.600,8.481 186.000 L 8.200 194.000 8.839 186.800 C 9.190 182.840,9.728 177.350,10.035 174.600 C 10.342 171.850,10.404 169.600,10.173 169.600 C 9.943 169.600,9.531 171.490,9.258 173.800 M257.277 172.285 C 268.022 174.334,276.175 179.703,280.037 187.272 C 283.896 194.837,283.982 195.847,283.991 233.800 L 284.000 269.600 269.600 269.600 L 255.200 269.600 255.200 237.298 C 255.200 202.569,255.082 201.454,250.923 196.922 C 247.054 192.706,233.564 189.219,228.548 191.138 C 227.309 191.612,225.430 192.000,224.371 192.000 C 221.836 192.000,213.698 195.629,211.408 197.780 L 209.600 199.479 209.600 234.111 C 209.600 267.533,209.546 268.773,208.053 269.572 C 206.409 270.451,185.654 270.714,182.594 269.894 L 180.787 269.410 180.994 222.105 L 181.200 174.800 195.200 174.800 L 209.200 174.800 209.451 178.780 C 209.815 184.539,212.617 186.650,215.937 183.664 C 221.071 179.047,233.693 174.052,244.400 172.398 C 247.920 171.855,250.980 171.363,251.200 171.306 C 251.420 171.249,254.155 171.689,257.277 172.285 M151.806 221.510 C 151.956 255.344,151.764 268.521,151.109 269.310 C 149.671 271.042,124.355 270.880,123.686 269.135 C 123.058 267.499,123.072 248.503,123.732 207.382 L 124.261 174.363 137.930 174.582 L 151.600 174.800 151.806 221.510 M392.305 199.600 C 392.307 204.880,392.436 206.936,392.593 204.169 C 392.750 201.401,392.749 197.081,392.590 194.569 C 392.432 192.056,392.304 194.320,392.305 199.600 M245.016 194.881 C 249.476 197.623,252.800 201.372,252.800 203.661 C 252.800 204.676,253.160 205.728,253.600 206.000 C 255.211 206.995,254.624 236.160,253.000 235.848 C 251.760 235.610,251.579 234.342,251.414 224.789 C 251.078 205.325,249.008 199.908,240.800 197.012 C 237.440 195.827,225.899 195.670,225.200 196.800 C 224.928 197.240,223.848 197.600,222.800 197.600 C 221.752 197.600,220.701 197.914,220.464 198.297 C 220.227 198.680,218.946 199.211,217.617 199.477 L 215.200 199.960 215.200 206.380 C 215.200 215.337,213.242 215.514,212.410 206.632 C 211.779 199.902,212.473 198.655,218.333 195.987 C 219.470 195.470,221.300 194.574,222.400 193.996 C 226.405 191.894,241.092 192.468,245.016 194.881 M8.463 214.000 C 8.608 218.400,9.077 223.980,9.506 226.400 L 10.285 230.800 9.881 225.600 C 9.659 222.740,9.190 217.160,8.839 213.200 L 8.200 206.000 8.463 214.000 M390.807 221.363 C 390.140 223.915,388.977 231.488,388.435 236.800 C 388.234 238.780,388.611 237.520,389.274 234.000 C 389.937 230.480,390.860 225.869,391.326 223.753 C 392.229 219.645,391.788 217.610,390.807 221.363 M10.900 234.400 C 11.551 238.881,12.004 239.520,11.988 235.933 C 11.981 234.430,11.616 232.660,11.176 232.000 C 10.618 231.161,10.535 231.884,10.900 234.400 M12.054 239.340 C 11.928 240.593,15.400 254.466,15.752 254.115 C 16.180 253.686,13.851 242.911,12.786 240.400 C 12.413 239.520,12.084 239.043,12.054 239.340 M386.933 241.333 C 386.640 241.627,386.400 242.631,386.400 243.565 C 386.400 244.499,385.849 247.378,385.176 249.961 C 384.504 252.545,384.071 255.014,384.216 255.449 C 384.361 255.884,385.284 252.898,386.267 248.814 C 387.975 241.719,388.114 240.152,386.933 241.333 M16.051 256.611 C 16.023 257.167,16.338 258.247,16.750 259.011 C 17.163 259.775,18.455 263.100,19.621 266.400 C 22.980 275.906,23.915 278.100,23.959 276.589 C 23.981 275.813,23.672 274.553,23.271 273.789 C 22.870 273.025,21.942 270.600,21.209 268.400 C 18.820 261.231,16.129 255.080,16.051 256.611 M381.029 263.043 C 380.521 264.229,379.490 267.180,378.737 269.600 C 377.984 272.020,377.061 274.342,376.684 274.760 C 376.308 275.178,376.002 276.078,376.005 276.760 C 376.012 278.543,377.974 274.533,379.563 269.490 C 380.306 267.131,381.309 264.391,381.792 263.401 C 382.274 262.412,382.508 261.441,382.311 261.244 C 382.114 261.047,381.537 261.857,381.029 263.043 M24.800 278.550 C 24.800 279.506,32.015 294.315,32.682 294.727 C 33.081 294.974,31.617 291.491,29.427 286.988 C 25.587 279.091,24.800 277.657,24.800 278.550 M372.552 283.292 C 369.561 289.842,370.181 290.035,373.384 283.552 C 374.785 280.719,375.673 278.400,375.358 278.400 C 375.044 278.400,373.781 280.602,372.552 283.292 M367.341 293.741 C 365.881 295.948,364.836 297.902,365.018 298.085 C 365.201 298.268,366.500 296.567,367.906 294.306 C 371.224 288.968,370.788 288.532,367.341 293.741 M35.342 299.200 C 39.519 306.434,40.484 307.901,45.012 313.904 C 55.736 328.119,69.656 342.438,81.239 351.165 C 83.477 352.852,79.228 348.811,72.085 342.459 C 58.093 330.017,36.000 303.128,36.000 298.540 C 36.000 298.131,35.384 297.302,34.632 296.698 C 33.694 295.946,33.918 296.733,35.342 299.200 M363.490 300.200 C 363.101 300.750,362.094 302.460,361.252 304.000 C 360.410 305.540,359.511 306.980,359.256 307.200 C 358.043 308.244,354.278 313.744,354.574 314.040 C 355.006 314.473,361.783 305.195,363.515 301.800 C 364.839 299.204,364.825 298.309,363.490 300.200 M352.787 315.800 C 352.775 316.358,350.449 319.216,346.113 324.000 C 343.460 326.926,342.603 328.682,344.747 326.800 C 347.542 324.344,354.532 315.200,353.613 315.200 C 353.166 315.200,352.794 315.470,352.787 315.800 M336.307 335.000 C 332.831 338.410,328.046 342.820,325.674 344.800 C 323.303 346.780,320.966 348.768,320.481 349.217 C 319.997 349.666,318.561 350.836,317.292 351.817 C 316.023 352.798,315.251 353.600,315.577 353.600 C 317.370 353.600,344.862 328.853,343.114 328.811 C 342.847 328.805,339.784 331.590,336.307 335.000 M84.000 353.114 C 84.000 353.299,85.890 354.799,88.200 356.449 C 90.510 358.098,92.520 359.752,92.667 360.124 C 92.813 360.496,93.350 360.800,93.858 360.800 C 94.367 360.800,93.887 359.990,92.792 359.000 C 90.564 356.986,84.000 352.592,84.000 353.114 M310.400 356.591 C 306.991 359.238,305.334 360.800,305.936 360.800 C 306.300 360.800,313.072 355.890,314.333 354.711 C 315.780 353.360,312.612 354.874,310.400 356.591 M98.400 363.242 C 100.485 364.661,104.000 366.455,104.000 366.100 C 104.000 365.656,98.479 362.396,97.754 362.412 C 97.449 362.419,97.740 362.792,98.400 363.242 M295.389 366.180 C 292.192 368.195,289.712 369.979,289.877 370.144 C 290.149 370.416,301.159 363.908,302.219 362.848 C 303.627 361.440,300.448 362.991,295.389 366.180 M105.348 367.439 C 105.854 368.258,120.865 375.402,121.256 375.010 C 121.397 374.870,117.774 372.947,113.207 370.737 C 108.640 368.527,105.103 367.043,105.348 367.439 M283.714 372.134 C 282.016 372.992,280.784 373.850,280.975 374.042 C 281.166 374.233,283.095 373.511,285.262 372.437 C 287.428 371.363,288.660 370.505,288.000 370.529 C 287.340 370.554,285.411 371.276,283.714 372.134 M122.467 376.305 C 122.995 376.789,138.907 382.402,139.693 382.382 C 140.082 382.372,139.140 381.799,137.600 381.109 C 136.060 380.420,134.175 379.528,133.411 379.128 C 132.647 378.727,131.387 378.398,130.611 378.395 C 129.835 378.392,128.169 377.852,126.909 377.195 C 124.900 376.147,121.565 375.479,122.467 376.305 M271.808 377.566 C 269.723 378.309,267.743 379.218,267.408 379.586 C 267.074 379.954,267.463 380.016,268.274 379.724 C 269.085 379.432,270.681 378.959,271.821 378.673 C 274.439 378.016,278.406 375.975,276.800 376.112 C 276.140 376.168,273.894 376.822,271.808 377.566 M262.400 380.848 C 261.740 381.262,260.160 381.971,258.889 382.423 C 257.618 382.875,256.748 383.414,256.955 383.622 C 257.162 383.829,259.462 383.114,262.066 382.033 C 264.670 380.952,266.080 380.074,265.200 380.081 C 264.320 380.088,263.060 380.433,262.400 380.848 M152.859 386.275 C 161.596 388.618,169.487 390.020,168.525 389.059 C 168.224 388.757,166.272 388.248,164.188 387.927 C 162.105 387.606,157.880 386.758,154.800 386.042 C 145.107 383.788,144.057 383.915,152.859 386.275 M249.200 385.222 C 244.919 386.633,247.358 386.659,252.400 385.256 C 254.694 384.618,255.547 384.148,254.400 384.155 C 253.300 384.162,250.960 384.642,249.200 385.222 M240.800 387.200 C 239.272 388.187,240.917 388.187,244.000 387.200 L 246.000 386.559 244.000 386.492 C 242.900 386.455,241.460 386.773,240.800 387.200 M232.400 388.841 C 231.323 389.331,232.107 389.410,234.800 389.082 C 237.000 388.814,238.950 388.461,239.133 388.297 C 239.835 387.671,233.921 388.148,232.400 388.841 M173.200 390.418 C 175.400 390.814,179.180 391.313,181.600 391.528 L 186.000 391.918 182.000 391.154 C 179.800 390.733,176.020 390.234,173.600 390.044 L 169.200 389.699 173.200 390.418 M223.853 390.014 C 223.625 390.241,221.315 390.767,218.719 391.182 L 214.000 391.937 218.400 391.537 C 220.820 391.317,224.600 390.840,226.800 390.476 L 230.800 389.814 227.533 389.707 C 225.737 389.648,224.080 389.786,223.853 390.014 M197.382 392.577 C 198.802 392.754,201.322 392.757,202.982 392.584 C 204.642 392.411,203.480 392.266,200.400 392.263 C 197.320 392.259,195.962 392.401,197.382 392.577 " stroke="none" fill="#2e76ed" fill-rule="evenodd"></path><path id="path4" d="M192.609 6.966 C 193.604 7.157,195.044 7.150,195.809 6.950 C 196.574 6.749,195.760 6.593,194.000 6.602 C 192.240 6.611,191.614 6.774,192.609 6.966 M205.000 6.951 C 205.770 7.153,207.030 7.153,207.800 6.951 C 208.570 6.750,207.940 6.586,206.400 6.586 C 204.860 6.586,204.230 6.750,205.000 6.951 M188.800 15.241 C 187.700 15.610,183.200 16.288,178.800 16.749 C 170.292 17.640,164.010 18.612,158.800 19.846 C 150.694 21.766,147.497 22.641,146.211 23.295 C 145.447 23.683,144.289 24.000,143.638 24.000 C 142.987 24.000,141.092 24.590,139.427 25.311 C 137.762 26.032,135.680 26.895,134.800 27.229 C 133.359 27.776,130.725 28.861,124.800 31.347 C 121.931 32.551,120.862 33.087,116.572 35.472 C 114.466 36.642,112.216 37.600,111.572 37.600 C 110.927 37.600,110.400 37.936,110.400 38.346 C 110.400 38.756,109.590 39.345,108.600 39.654 C 107.610 39.963,106.620 40.440,106.400 40.715 C 105.818 41.442,99.318 45.600,98.764 45.600 C 98.285 45.600,92.730 49.597,92.000 50.467 C 91.780 50.729,89.980 52.103,88.000 53.519 C 79.733 59.432,67.575 71.184,59.777 80.800 C 57.100 84.100,54.616 86.920,54.255 87.067 C 53.895 87.213,53.600 87.791,53.600 88.350 C 53.600 88.909,52.700 90.337,51.600 91.524 C 50.500 92.711,49.600 94.024,49.600 94.441 C 49.600 94.859,49.201 95.200,48.714 95.200 C 48.227 95.200,48.041 95.754,48.301 96.430 C 48.570 97.130,48.262 97.857,47.587 98.116 C 46.074 98.696,46.032 100.800,47.533 100.800 C 48.157 100.800,48.854 101.250,49.082 101.800 C 49.362 102.474,50.035 102.149,51.148 100.800 C 52.056 99.700,53.160 98.365,53.600 97.834 C 54.040 97.302,54.400 96.492,54.400 96.034 C 54.400 95.575,54.760 95.200,55.200 95.200 C 55.640 95.200,56.000 94.801,56.000 94.313 C 56.000 93.825,56.697 92.655,57.549 91.713 C 61.378 87.479,63.049 85.495,64.472 83.494 C 66.765 80.270,78.119 69.171,83.461 64.932 C 86.048 62.879,89.996 59.670,92.234 57.800 C 94.473 55.930,96.746 54.400,97.286 54.400 C 97.825 54.400,98.387 54.117,98.533 53.771 C 99.935 50.468,129.410 35.233,141.600 31.512 C 144.020 30.773,146.342 29.861,146.760 29.484 C 147.178 29.108,148.507 28.800,149.713 28.800 C 150.919 28.800,152.105 28.478,152.348 28.085 C 152.591 27.691,154.142 27.170,155.795 26.927 C 157.448 26.684,161.500 25.914,164.800 25.217 C 177.274 22.582,201.911 21.333,216.000 22.622 C 227.346 23.660,243.706 26.442,247.600 27.996 C 248.480 28.347,251.540 29.361,254.400 30.248 C 263.437 33.052,267.387 34.685,280.274 40.942 C 288.320 44.849,288.800 45.122,288.800 45.790 C 288.800 46.125,289.268 46.400,289.839 46.400 C 291.001 46.400,305.919 56.465,311.183 60.800 C 313.053 62.340,315.675 64.500,317.010 65.600 C 322.562 70.176,335.118 83.237,339.311 88.800 C 340.471 90.340,342.361 92.680,343.510 94.000 C 344.658 95.320,345.598 96.653,345.599 96.962 C 345.600 97.271,347.310 99.967,349.400 102.955 C 357.002 113.821,367.876 136.285,369.368 144.210 C 369.597 145.425,370.103 146.616,370.492 146.857 C 370.882 147.098,371.200 148.332,371.200 149.600 C 371.200 150.868,371.560 152.128,372.000 152.400 C 372.440 152.672,372.800 153.652,372.800 154.577 C 372.800 155.502,373.311 158.091,373.935 160.330 C 375.727 166.758,377.608 177.664,377.603 181.600 C 377.600 183.580,378.015 188.187,378.525 191.837 C 379.524 198.980,378.752 211.779,376.370 227.600 C 375.708 232.000,375.174 236.749,375.183 238.153 C 375.192 239.557,374.840 240.928,374.400 241.200 C 373.960 241.472,373.598 242.483,373.595 243.447 C 373.592 244.411,373.052 246.231,372.395 247.491 C 371.738 248.752,371.200 250.620,371.200 251.644 C 371.200 252.668,370.840 253.728,370.400 254.000 C 369.960 254.272,369.600 255.555,369.600 256.851 C 369.600 258.147,368.700 261.073,367.600 263.354 C 366.500 265.634,365.600 267.943,365.600 268.485 C 365.600 269.705,363.018 274.703,362.200 275.067 C 361.870 275.213,361.600 276.002,361.600 276.819 C 361.600 277.637,361.240 278.528,360.800 278.800 C 360.360 279.072,360.000 279.758,360.000 280.325 C 360.000 281.423,363.036 285.281,363.464 284.728 C 363.604 284.548,364.339 283.050,365.097 281.400 C 365.855 279.750,366.818 278.400,367.238 278.400 C 367.657 278.400,368.000 277.521,368.000 276.447 C 368.000 275.373,368.360 274.272,368.800 274.000 C 369.240 273.728,369.600 272.653,369.600 271.610 C 369.600 270.567,370.140 269.174,370.800 268.514 C 371.460 267.854,372.000 266.590,372.000 265.704 C 372.000 264.819,372.332 263.889,372.738 263.638 C 373.145 263.387,373.713 262.106,374.002 260.791 C 374.291 259.476,374.821 258.400,375.180 258.400 C 375.538 258.400,376.008 257.050,376.224 255.400 C 376.439 253.750,377.238 250.420,378.000 248.000 C 378.762 245.580,379.560 242.160,379.774 240.400 C 379.989 238.640,380.487 236.858,380.882 236.440 C 381.277 236.022,381.600 234.335,381.600 232.692 C 381.600 231.049,382.016 228.691,382.524 227.452 C 385.402 220.434,385.642 176.598,382.827 172.044 C 382.510 171.530,381.909 169.060,381.494 166.555 C 379.583 155.046,377.961 147.882,376.705 145.411 C 376.317 144.647,376.000 143.318,376.000 142.458 C 376.000 141.598,375.640 140.672,375.200 140.400 C 374.760 140.128,374.389 139.117,374.375 138.153 C 374.361 137.189,373.821 135.701,373.175 134.847 C 372.529 133.993,372.000 132.801,372.000 132.198 C 372.000 130.004,362.748 111.206,358.319 104.400 C 356.601 101.760,354.949 99.076,354.649 98.435 C 354.348 97.795,353.642 96.715,353.079 96.035 C 352.516 95.356,349.795 91.744,347.031 88.009 C 337.518 75.151,325.898 63.327,314.003 54.400 C 311.365 52.420,308.511 50.174,307.662 49.409 C 306.813 48.644,305.461 47.810,304.659 47.555 C 303.857 47.301,303.200 46.798,303.200 46.439 C 303.200 46.080,302.570 45.574,301.800 45.314 C 301.030 45.054,298.240 43.427,295.600 41.699 C 289.322 37.590,269.932 28.000,267.902 28.000 C 267.431 28.000,265.911 27.409,264.523 26.686 C 259.738 24.193,259.215 24.000,257.258 24.000 C 256.178 24.000,255.102 23.689,254.867 23.308 C 254.631 22.927,253.260 22.386,251.819 22.106 C 250.379 21.825,246.680 21.032,243.600 20.342 C 234.517 18.309,230.436 17.614,222.400 16.733 C 218.220 16.274,213.694 15.562,212.343 15.150 C 209.356 14.238,191.584 14.307,188.800 15.241 M329.600 56.250 C 329.600 56.388,330.770 57.558,332.200 58.850 L 334.800 61.200 332.450 58.600 C 330.260 56.176,329.600 55.632,329.600 56.250 M339.200 65.850 C 339.200 65.988,340.370 67.158,341.800 68.450 L 344.400 70.800 342.050 68.200 C 339.860 65.776,339.200 65.232,339.200 65.850 M128.364 122.063 C 123.422 124.471,119.023 130.846,123.485 129.133 C 124.208 128.856,124.800 128.307,124.800 127.914 C 124.800 127.521,125.186 127.200,125.657 127.200 C 126.129 127.200,127.054 126.660,127.714 126.000 C 128.374 125.340,129.587 124.800,130.410 124.800 C 131.233 124.800,132.128 124.440,132.400 124.000 C 135.397 119.151,153.600 128.183,153.600 134.519 C 153.600 135.722,153.960 136.928,154.400 137.200 C 154.840 137.472,155.200 139.092,155.200 140.800 C 155.200 142.508,154.840 144.128,154.400 144.400 C 153.318 145.068,153.388 147.468,154.521 148.601 C 156.003 150.083,158.400 144.738,158.400 139.953 C 158.400 124.816,142.343 115.252,128.364 122.063 M240.400 167.105 C 233.959 168.304,227.793 170.658,220.546 174.686 C 216.288 177.053,215.200 176.893,215.200 173.896 C 215.200 169.451,214.114 169.199,195.016 169.211 C 180.438 169.221,177.397 169.421,176.745 170.411 C 175.930 171.650,176.270 190.137,177.124 190.990 C 177.386 191.252,177.617 191.137,177.637 190.733 C 178.173 180.068,178.459 176.792,179.028 174.800 L 179.714 172.400 194.454 172.181 C 211.013 171.935,211.200 171.997,211.200 177.687 C 211.200 183.561,212.516 184.475,216.295 181.225 C 218.293 179.506,220.690 178.217,227.600 175.144 C 240.943 169.212,256.401 168.568,266.718 173.515 C 275.620 177.784,283.200 185.377,283.200 190.026 C 283.200 190.936,283.521 192.022,283.912 192.440 C 284.304 192.858,284.821 207.240,285.061 224.400 C 285.559 260.025,285.395 256.000,286.346 256.000 C 289.603 256.000,290.025 198.578,286.837 189.187 C 281.067 172.192,261.941 163.097,240.400 167.105 M120.800 169.835 L 118.800 170.846 118.586 190.695 C 118.416 206.438,118.581 210.473,119.386 210.208 C 120.513 209.836,121.337 199.575,121.502 183.857 C 121.635 171.158,120.673 171.836,138.138 172.150 C 149.451 172.353,152.203 172.625,152.818 173.600 C 153.254 174.291,153.581 186.015,153.588 201.247 C 153.598 222.494,153.818 227.992,154.707 229.208 C 155.958 230.919,156.702 217.382,157.029 186.944 C 157.189 172.066,157.104 171.017,155.647 169.944 C 153.543 168.394,123.833 168.301,120.800 169.835 M393.002 194.000 C 393.011 195.760,393.174 196.386,393.366 195.391 C 393.557 194.396,393.550 192.956,393.350 192.191 C 393.149 191.426,392.993 192.240,393.002 194.000 M222.400 193.996 C 221.300 194.574,219.470 195.470,218.333 195.987 C 212.473 198.655,211.779 199.902,212.410 206.632 C 213.242 215.514,215.200 215.337,215.200 206.380 L 215.200 199.960 217.617 199.477 C 218.946 199.211,220.227 198.680,220.464 198.297 C 220.701 197.914,221.752 197.600,222.800 197.600 C 223.848 197.600,224.928 197.240,225.200 196.800 C 225.899 195.670,237.440 195.827,240.800 197.012 C 249.008 199.908,251.078 205.325,251.414 224.789 C 251.579 234.342,251.760 235.610,253.000 235.848 C 254.546 236.145,255.199 208.805,253.718 205.789 C 253.342 205.025,252.352 202.988,251.518 201.262 C 247.980 193.949,230.703 189.638,222.400 193.996 M6.656 200.000 C 6.656 202.860,6.801 204.030,6.979 202.600 C 7.156 201.170,7.156 198.830,6.979 197.400 C 6.801 195.970,6.656 197.140,6.656 200.000 M393.786 200.000 C 393.786 201.540,393.950 202.170,394.151 201.400 C 394.353 200.630,394.353 199.370,394.151 198.600 C 393.950 197.830,393.786 198.460,393.786 200.000 M392.986 205.600 C 392.986 207.140,393.150 207.770,393.351 207.000 C 393.553 206.230,393.553 204.970,393.351 204.200 C 393.150 203.430,392.986 204.060,392.986 205.600 M198.214 393.380 C 199.652 393.558,201.812 393.554,203.014 393.372 C 204.216 393.189,203.040 393.043,200.400 393.048 C 197.760 393.052,196.776 393.202,198.214 393.380 " stroke="none" fill="#67c1eb" fill-rule="evenodd"></path></g></svg>